<svg width="32" height="34" viewBox="0 0 32 34" fill="none" xmlns="http://www.w3.org/2000/svg">
<g clip-path="url(#clip0_35_86)">
<path d="M3.95776 12.9972H13.652V21.0028H3.95776V12.9972Z" fill="#F3A80C"/>
<path d="M3.9579 8.99438C2.92947 8.99438 1.94316 9.41611 1.21595 10.1668C0.488743 10.9174 0.0802002 11.9356 0.0802002 12.9972L0.0802002 21.0028C0.0802002 22.0644 0.488743 23.0825 1.21595 23.8332C1.94316 24.5838 2.92947 25.0055 3.9579 25.0055H23.3464C24.3749 25.0055 25.3612 24.5838 26.0884 23.8332C26.8156 23.0825 27.2241 22.0644 27.2241 21.0028V12.9972C27.2241 11.9356 26.8156 10.9174 26.0884 10.1668C25.3612 9.41611 24.3749 8.99438 23.3464 8.99438H3.9579ZM23.3464 10.9958C23.8606 10.9958 24.3538 11.2066 24.7174 11.582C25.081 11.9573 25.2853 12.4664 25.2853 12.9972V21.0028C25.2853 21.5336 25.081 22.0426 24.7174 22.418C24.3538 22.7933 23.8606 23.0042 23.3464 23.0042H3.9579C3.44369 23.0042 2.95053 22.7933 2.58693 22.418C2.22332 22.0426 2.01905 21.5336 2.01905 21.0028V12.9972C2.01905 12.4664 2.22332 11.9573 2.58693 11.582C2.95053 11.2066 3.44369 10.9958 3.9579 10.9958H23.3464ZM31.1018 17C31.1018 17.7962 30.7954 18.5598 30.25 19.1228C29.7046 19.6858 28.9649 20.0021 28.1936 20.0021V13.9979C28.9649 13.9979 29.7046 14.3142 30.25 14.8772C30.7954 15.4402 31.1018 16.2038 31.1018 17Z" fill="white"/>
</g>
<defs>
<clipPath id="clip0_35_86">
<rect width="31.0216" height="32.0223" fill="white" transform="translate(0.0802002 0.988831)"/>
</clipPath>
</defs>
</svg>
