<svg width="24" height="19" viewBox="0 0 24 19" fill="none" xmlns="http://www.w3.org/2000/svg">
<g clip-path="url(#clip0_35_84)">
<path d="M0.239424 5.74452C6.61091 -0.340839 16.5204 -0.338611 22.8894 5.74452C23.1289 5.97327 23.1336 6.36059 22.902 6.59789L21.6706 7.85937C21.4498 8.0859 21.0945 8.09072 20.865 7.87348C15.6174 2.90924 7.51213 2.90813 2.2634 7.87348C2.03395 8.09072 1.67864 8.08553 1.45783 7.85937L0.226475 6.59789C-0.00476456 6.36059 -8.7738e-05 5.97327 0.239424 5.74452ZM11.5644 13.0646C12.8357 13.0646 13.866 14.1285 13.866 15.4413C13.866 16.754 12.8357 17.8179 11.5644 17.8179C10.2931 17.8179 9.26279 16.754 9.26279 15.4413C9.26279 14.1285 10.2931 13.0646 11.5644 13.0646ZM4.27586 9.96048C8.42091 6.17529 14.7126 6.17937 18.8529 9.96048C19.1011 10.187 19.109 10.5803 18.8734 10.8202L17.6349 12.0824C17.4191 12.3022 17.0717 12.3171 16.8419 12.1121C13.8228 9.4172 9.29911 9.42314 6.28725 12.1121C6.05745 12.3171 5.71005 12.3026 5.49427 12.0824L4.25572 10.8202C4.01981 10.5803 4.02808 10.1866 4.27586 9.96048Z" fill="white"/>
</g>
<defs>
<clipPath id="clip0_35_84">
<rect width="23.0161" height="19.0133" fill="white" transform="matrix(-1 0 0 1 23.0725 -0.00698853)"/>
</clipPath>
</defs>
</svg>
