<svg width="66" height="81" viewBox="0 0 66 81" fill="none" xmlns="http://www.w3.org/2000/svg">
<rect x="1.22173" y="0.640669" width="32.6407" height="70.421" rx="4" transform="matrix(0.947118 -0.320885 0.274614 0.961554 -0.111329 11.5323)" fill="url(#paint0_linear_35_77)" stroke="url(#paint1_linear_35_77)" stroke-width="2"/>
<rect width="12.4351" height="1.90582" rx="0.952908" transform="matrix(0.947118 -0.320885 0.274614 0.961554 28.4126 71.8345)" fill="url(#paint2_linear_35_77)"/>
<path d="M55.662 3.11385C55.9841 2.24323 57.2155 2.24323 57.5377 3.11385L58.9718 6.98939C59.073 7.26311 59.2889 7.47892 59.5626 7.58021L63.4381 9.01429C64.3087 9.33644 64.3087 10.5678 63.4381 10.89L59.5626 12.3241C59.2889 12.4254 59.073 12.6412 58.9718 12.9149L57.5377 16.7904C57.2155 17.661 55.9841 17.661 55.662 16.7904L54.2279 12.9149C54.1266 12.6412 53.9108 12.4254 53.6371 12.3241L49.7615 10.89C48.8909 10.5678 48.8909 9.33644 49.7615 9.01429L53.6371 7.58021C53.9108 7.47892 54.1266 7.26311 54.2279 6.98939L55.662 3.11385Z" fill="url(#paint3_linear_35_77)"/>
<path d="M44.0566 17.4187C44.4534 16.8345 45.3143 16.8345 45.7111 17.4187L46.9879 19.2987C47.0588 19.4031 47.1489 19.4932 47.2533 19.5641L49.1333 20.8409C49.7175 21.2377 49.7175 22.0986 49.1333 22.4954L47.2533 23.7722C47.1489 23.8431 47.0588 23.9332 46.9879 24.0376L45.7111 25.9175C45.3143 26.5018 44.4534 26.5018 44.0566 25.9175L42.7798 24.0376C42.7089 23.9332 42.6188 23.8431 42.5144 23.7722L40.6344 22.4954C40.0502 22.0986 40.0502 21.2377 40.6344 20.8409L42.5144 19.5641C42.6188 19.4932 42.7089 19.4031 42.7798 19.2987L44.0566 17.4187Z" fill="url(#paint4_linear_35_77)"/>
<defs>
<linearGradient id="paint0_linear_35_77" x1="17.3204" y1="0" x2="17.3204" y2="72.421" gradientUnits="userSpaceOnUse">
<stop stop-color="#A73C87"/>
<stop offset="1" stop-color="#591244"/>
</linearGradient>
<linearGradient id="paint1_linear_35_77" x1="17.3204" y1="0" x2="17.3204" y2="72.421" gradientUnits="userSpaceOnUse">
<stop stop-color="#F263BE"/>
<stop offset="1" stop-color="#71136A"/>
</linearGradient>
<linearGradient id="paint2_linear_35_77" x1="6.21757" y1="-6.03508" x2="6.21757" y2="2.54109" gradientUnits="userSpaceOnUse">
<stop stop-color="#F263BE"/>
<stop offset="1" stop-color="#77176F"/>
</linearGradient>
<linearGradient id="paint3_linear_35_77" x1="52.6945" y1="0.579346" x2="52.6945" y2="27.1356" gradientUnits="userSpaceOnUse">
<stop stop-color="#F062BC"/>
<stop offset="1" stop-color="#9A397F"/>
</linearGradient>
<linearGradient id="paint4_linear_35_77" x1="52.6945" y1="0.579346" x2="52.6945" y2="27.1356" gradientUnits="userSpaceOnUse">
<stop stop-color="#F062BC"/>
<stop offset="1" stop-color="#9A397F"/>
</linearGradient>
</defs>
</svg>
