<svg width="34" height="40" viewBox="0 0 34 40" fill="none" xmlns="http://www.w3.org/2000/svg">
<path d="M31.9999 6.66664H26.8333C26.0358 2.7893 22.625 0.005 18.6665 0H15.3332C11.3747 0.005 7.96388 2.7893 7.16653 6.66664H1.99989C1.07942 6.66664 0.333252 7.41281 0.333252 8.33328C0.333252 9.25375 1.07942 10 1.99989 10H3.66653V31.6666C3.67208 36.2667 7.39982 39.9945 11.9999 40H21.9999C26.6 39.9945 30.3277 36.2667 30.3333 31.6666V10H31.9999C32.9204 10 33.6665 9.25383 33.6665 8.33336C33.6665 7.41289 32.9204 6.66664 31.9999 6.66664ZM15.3333 28.3334C15.3333 29.2538 14.5871 30 13.6666 30C12.7461 30 11.9999 29.2538 11.9999 28.3334V18.3334C11.9999 17.4129 12.7461 16.6667 13.6665 16.6667C14.587 16.6667 15.3332 17.4129 15.3332 18.3334V28.3334H15.3333ZM21.9999 28.3334C21.9999 29.2538 21.2537 30 20.3333 30C19.4128 30 18.6666 29.2538 18.6666 28.3334V18.3334C18.6666 17.4129 19.4128 16.6667 20.3333 16.6667C21.2537 16.6667 21.9999 17.4129 21.9999 18.3334V28.3334ZM10.6183 6.66664C11.3272 4.67047 13.215 3.33586 15.3333 3.33328H18.6666C20.7849 3.33586 22.6727 4.67047 23.3816 6.66664H10.6183Z" fill="#CB0101"/>
</svg>
