<svg width="24"
     height="24"
     viewBox="0 0 24 24"
     fill="none"
     xmlns="http://www.w3.org/2000/svg">
    <path d="M17.05 20.28C16.07 21.23 15 21.08 13.97 20.63C12.88 20.17 11.88 20.15 10.73 20.63C9.29001 21.25 8.53001 21.07 7.67001 20.28C2.79001 15.26 3.51001 7.43 9.00001 7.13C10.57 7.21 11.65 7.95 12.54 8.02C13.89 7.8 15.17 7.03 16.63 7.13C18.41 7.26 19.75 7.94 20.64 9.16C16.94 11.29 17.84 16.06 21.21 17.34C20.5 18.45 19.65 19.55 17.05 20.28ZM12.42 7.05C12.2 4.75 14.06 2.83 16.25 2.63C16.59 5.29 14.09 7.31 12.42 7.05Z"
          fill="white" />
</svg>