<svg width="126" height="147" viewBox="0 0 126 147" fill="none" xmlns="http://www.w3.org/2000/svg">
<path d="M28.601 49.4289V35.56C28.601 16.4111 44.1243 0.887817 63.2734 0.887817C82.4221 0.887817 97.9456 16.4111 97.9456 35.56V49.4289H118.749C122.579 49.4289 125.683 52.5335 125.683 56.3633L125.683 139.577C125.683 143.406 122.579 146.511 118.749 146.511H7.79772C3.96797 146.511 0.863281 143.406 0.863281 139.577L0.863281 56.3633C0.863281 52.5335 3.96797 49.4289 7.79772 49.4289H28.601ZM28.601 63.2977H14.7322L14.7322 132.642H111.814L111.814 63.2977H97.9456V77.1669H84.0767V63.2977L42.4699 63.2977L42.4699 77.1669H28.601V63.2977ZM42.4699 49.4289L84.0767 49.4289V35.56C84.0767 24.0707 74.7623 14.7567 63.2734 14.7567C51.7837 14.7567 42.4699 24.0707 42.4699 35.56V49.4289Z" fill="white"/>
</svg>


