<svg width="18" height="20" viewBox="0 0 18 20" fill="none" xmlns="http://www.w3.org/2000/svg">
<path fill-rule="evenodd" clip-rule="evenodd" d="M4.125 10.3684C4.43566 10.3684 4.6875 10.6342 4.6875 10.9622C4.6875 12.9908 6.49847 14.6038 9 14.6038C11.5015 14.6038 13.3125 12.9908 13.3125 10.9622C13.3125 10.6342 13.5643 10.3684 13.875 10.3684C14.1857 10.3684 14.4375 10.6342 14.4375 10.9622V13.8913C14.4375 16.7646 11.9266 18.958 9 18.958C6.07341 18.958 3.5625 16.7646 3.5625 13.8913V10.9622C3.5625 10.6342 3.81434 10.3684 4.125 10.3684ZM4.68836 13.9684C4.73377 16.0029 6.57221 17.7705 9 17.7705C11.4278 17.7705 13.2662 16.0029 13.3116 13.9684C12.297 15.1199 10.7062 15.7913 9 15.7913C7.29382 15.7913 5.70298 15.1199 4.68836 13.9684Z" fill="#292D32"/>
<path fill-rule="evenodd" clip-rule="evenodd" d="M9 3.12476C7.78113 3.12476 6.6988 3.57482 5.9199 4.29248L5.91963 4.29272C5.14784 5.00295 4.6875 5.96275 4.6875 7.00392C4.6875 7.6131 4.84545 8.17124 5.12247 8.64973L5.12315 8.65089C5.80262 9.83062 7.24732 10.6456 9 10.6456C10.7527 10.6456 12.1974 9.83062 12.8769 8.65089L12.8775 8.64973C13.1545 8.17124 13.3125 7.6131 13.3125 7.00392C13.3125 5.96395 12.8531 5.00376 12.0802 4.28468C11.3006 3.57422 10.218 3.12476 9 3.12476ZM5.18036 3.39762C6.17142 2.4846 7.519 1.93726 9 1.93726C10.481 1.93726 11.8276 2.48455 12.8179 3.38806L12.8217 3.39158L12.8217 3.3916C13.8026 4.30315 14.4375 5.57475 14.4375 7.00392C14.4375 7.83534 14.2206 8.60698 13.8378 9.26837C12.9122 10.875 11.0571 11.8331 9 11.8331C6.94297 11.8331 5.0879 10.875 4.16224 9.26845C3.77944 8.60705 3.5625 7.83538 3.5625 7.00392C3.5625 5.57522 4.19703 4.30262 5.1801 3.39786" fill="#292D32"/>
<path fill-rule="evenodd" clip-rule="evenodd" d="M9 3.12476C6.54159 3.12476 4.6875 4.93721 4.6875 7.00392V10.9623C4.6875 12.9909 6.49847 14.6039 9 14.6039C11.5015 14.6039 13.3125 12.9909 13.3125 10.9623V7.00392C13.3125 5.96395 12.8531 5.00376 12.0802 4.28468C11.3006 3.57422 10.218 3.12476 9 3.12476ZM3.5625 7.00392C3.5625 4.13063 6.07341 1.93726 9 1.93726C10.481 1.93726 11.8276 2.48455 12.8179 3.38806L12.8217 3.39158L12.8217 3.3916C13.8026 4.30315 14.4375 5.57475 14.4375 7.00392V10.9623C14.4375 13.8736 11.8835 15.7914 9 15.7914C6.11653 15.7914 3.5625 13.8736 3.5625 10.9623V7.00392Z" fill="#292D32"/>
</svg>
