<svg width="16" height="18" viewBox="0 0 16 18" fill="none" xmlns="http://www.w3.org/2000/svg">
<path fill-rule="evenodd" clip-rule="evenodd" d="M14.7637 2.95715C15.0932 2.95715 15.3675 3.2307 15.3675 3.57879V3.90063C15.3675 4.24024 15.0932 4.52227 14.7637 4.52227H0.727264C0.396969 4.52227 0.122681 4.24024 0.122681 3.90063V3.57879C0.122681 3.2307 0.396969 2.95715 0.727264 2.95715H3.19668C3.69831 2.95715 4.13486 2.60059 4.2477 2.09752L4.37702 1.51991C4.57801 0.733121 5.23943 0.210571 5.99639 0.210571H9.49374C10.2425 0.210571 10.9113 0.733121 11.1049 1.47842L11.2433 2.09668C11.3553 2.60059 11.7918 2.95715 12.2943 2.95715H14.7637ZM13.5091 14.7219C13.7669 12.3193 14.2184 6.61095 14.2184 6.55337C14.2348 6.3789 14.178 6.21375 14.0652 6.08078C13.944 5.95628 13.7908 5.88259 13.622 5.88259H1.87458C1.7049 5.88259 1.54346 5.95628 1.43144 6.08078C1.31777 6.21375 1.26176 6.3789 1.27 6.55337C1.27151 6.56394 1.28771 6.76501 1.31478 7.10114C1.43507 8.59453 1.77011 12.7538 1.9866 14.7219C2.1398 16.1719 3.09117 17.0832 4.46919 17.1162C5.53258 17.1408 6.62806 17.1492 7.7483 17.1492C8.80341 17.1492 9.87503 17.1408 10.9714 17.1162C12.3972 17.0916 13.3477 16.1964 13.5091 14.7219Z" fill="white"/>
</svg>
