<svg width="24" height="24" viewBox="0 0 24 24" fill="none" xmlns="http://www.w3.org/2000/svg">
    <path d="M17.5648 1.00458L14.7875 1C11.6674 1 9.65099 3.12509 9.65099 6.41423V8.91055H6.85857C6.61594 8.91055 6.41992 9.1272 6.41992 9.39584V12.8309C6.41992 13.0995 6.61614 13.3159 6.85857 13.3159H9.65099V22.5809C9.65099 22.8496 9.84701 23.0662 10.0896 23.0662H13.429C13.6716 23.0662 13.8676 22.8494 13.8676 22.5809V13.3159H17.4327C17.6754 13.3159 17.8714 13.0995 17.8714 12.8309L17.873 9.39584C17.873 9.2681 17.8227 9.14645 17.7344 9.05445C17.6461 8.96246 17.5255 8.91055 17.4003 8.91055H13.8676V6.79439C13.8676 5.77727 14.1003 5.26094 15.3487 5.26094L17.5644 5.26025C17.8068 5.26025 18.0028 5.04341 18.0028 4.77496V1.4899C18.0028 1.22164 17.807 1.00499 17.5648 1.00458Z" fill="#1976D2"/>
</svg>