<svg width="16" height="16" viewBox="0 0 16 16" fill="none" xmlns="http://www.w3.org/2000/svg">
<path d="M12.4 1.40137C13.1333 1.40137 13.7333 2.00137 13.7333 2.7347V4.20137C13.7333 4.7347 13.4 5.40137 13.0667 5.7347L10.2 8.26803C9.8 8.60137 9.53333 9.26803 9.53333 9.80137V12.668C9.53333 13.068 9.26666 13.6014 8.93333 13.8014L8 14.4014C7.13333 14.9347 5.93333 14.3347 5.93333 13.268V9.7347C5.93333 9.26803 5.66666 8.66803 5.4 8.3347L2.86666 5.66803C2.53333 5.3347 2.26666 4.7347 2.26666 4.3347V2.80137C2.26666 2.00137 2.86666 1.40137 3.6 1.40137H9.6M7.28666 1.40137L4 6.66803" stroke="white" stroke-width="1.5" stroke-miterlimit="10" stroke-linecap="round" stroke-linejoin="round"/>
</svg>
