<svg width="20"
     height="20"
     viewBox="0 0 20 20"
     fill="none"
     xmlns="http://www.w3.org/2000/svg">
    <path d="M9.99752 5.32195V7.8879M17.0131 12.0481C17.6093 12.9882 17.1356 14.2057 16.033 14.5525C12.1281 15.7776 7.90778 15.7776 4.00283 14.5525C2.82676 14.1826 2.37757 13.0576 3.02277 12.0481L4.06 10.4146C4.34585 9.96764 4.57453 9.17396 4.57453 8.65769V7.03952C4.57346 6.36494 4.71336 5.69678 4.98623 5.07326C5.2591 4.44973 5.65959 3.88309 6.16478 3.40573C6.66998 2.92837 7.26997 2.54967 7.93043 2.29128C8.59089 2.0329 9.29886 1.8999 10.0139 1.8999C13.003 1.8999 15.4532 4.21157 15.4532 7.03181V8.64998C15.4532 8.78868 15.4695 8.9428 15.494 9.10461"
          stroke="white"
          stroke-miterlimit="10"
          stroke-linecap="round" />
    <path d="M12.7273 15.4712C12.7273 16.9628 11.4987 18.1855 9.99998 18.1855C9.25469 18.1855 8.56673 17.8757 8.07533 17.3867C7.58393 16.8976 7.27271 16.2129 7.27271 15.4712"
          stroke="white"
          stroke-miterlimit="10" />
</svg>