<svg width="15" height="16" viewBox="0 0 15 16" fill="none" xmlns="http://www.w3.org/2000/svg">
<path fill-rule="evenodd" clip-rule="evenodd" d="M10.4528 14.7195H4.58155C2.4249 14.7195 0.770387 13.9406 1.24034 10.8053L1.78755 6.5564C2.07725 4.99202 3.07512 4.39331 3.95065 4.39331H11.1095C11.9979 4.39331 12.9378 5.03709 13.2726 6.5564L13.8198 10.8053C14.2189 13.5865 12.6095 14.7195 10.4528 14.7195Z" stroke="black" stroke-linecap="round" stroke-linejoin="round"/>
<path d="M10.5494 4.23861C10.5494 2.56043 9.189 1.19998 7.51079 1.19998C6.70266 1.19656 5.92647 1.51519 5.35383 2.08541C4.78119 2.65563 4.45928 3.43048 4.45929 4.23861" stroke="black" stroke-linecap="round" stroke-linejoin="round"/>
<path d="M9.59647 7.40552H9.56432" stroke="black" stroke-linecap="round" stroke-linejoin="round"/>
<path d="M5.49593 7.40552H5.46374" stroke="black" stroke-linecap="round" stroke-linejoin="round"/>
</svg>
