<svg width="15"
     height="15"
     viewBox="0 0 15 15"
     fill="none"
     xmlns="http://www.w3.org/2000/svg">
    <g clip-path="url(#clip0_1_1100)">
        <path d="M12.6852 4.35678C12.6852 1.86302 12.1035 1.23804 9.76448 1.23804H5.08637C2.74732 1.23804 2.16565 1.86302 2.16565 4.35678V11.3244C2.16565 12.9704 3.06909 13.3603 4.16437 12.1846L4.17055 12.1784C4.67797 11.64 5.45146 11.6833 5.89081 12.2712L6.5158 13.1066C7.01702 13.7687 7.82765 13.7687 8.32887 13.1066L8.95386 12.2712C9.39939 11.6772 10.1729 11.6338 10.6803 12.1784C11.7818 13.3541 12.679 12.9643 12.679 11.3182V6.80721M4.95024 4.33202H9.90062M5.56904 6.80721H9.28182"
              stroke="white"
              stroke-width="0.928196"
              stroke-linecap="round"
              stroke-linejoin="round" />
    </g>
    <defs>
        <clipPath id="clip0_1_1100">
            <rect width="14.8511"
                  height="14.8511"
                  fill="white" />
        </clipPath>
    </defs>
</svg>