<svg width="20" height="20" viewBox="0 0 20 20" fill="none" xmlns="http://www.w3.org/2000/svg">
<path d="M10 12.8228C11.3807 12.8228 12.5 11.7594 12.5 10.4478C12.5 9.13608 11.3807 8.07275 10 8.07275C8.61929 8.07275 7.5 9.13608 7.5 10.4478C7.5 11.7594 8.61929 12.8228 10 12.8228Z" stroke="#292D32" stroke-miterlimit="10" stroke-linecap="round" stroke-linejoin="round"/>
<path d="M1.66663 11.1445V9.75114C1.66663 8.9278 2.37496 8.24697 3.24996 8.24697C4.75829 8.24697 5.37496 7.23364 4.61663 5.99072C4.18329 5.27822 4.44163 4.35197 5.19996 3.94031L6.64163 3.15656C7.29996 2.78447 8.14996 3.00614 8.54163 3.63156L8.63329 3.78197C9.38329 5.02489 10.6166 5.02489 11.375 3.78197L11.4666 3.63156C11.8583 3.00614 12.7083 2.78447 13.3666 3.15656L14.8083 3.94031C15.5666 4.35197 15.825 5.27822 15.3916 5.99072C14.6333 7.23364 15.25 8.24697 16.7583 8.24697C17.625 8.24697 18.3416 8.91989 18.3416 9.75114V11.1445C18.3416 11.9678 17.6333 12.6486 16.7583 12.6486C15.25 12.6486 14.6333 13.662 15.3916 14.9049C15.825 15.6253 15.5666 16.5436 14.8083 16.9553L13.3666 17.7391C12.7083 18.1111 11.8583 17.8895 11.4666 17.2641L11.375 17.1136C10.625 15.8707 9.39163 15.8707 8.63329 17.1136L8.54163 17.2641C8.14996 17.8895 7.29996 18.1111 6.64163 17.7391L5.19996 16.9553C4.44163 16.5436 4.18329 15.6174 4.61663 14.9049C5.37496 13.662 4.75829 12.6486 3.24996 12.6486C2.37496 12.6486 1.66663 11.9678 1.66663 11.1445Z" stroke="#292D32" stroke-miterlimit="10" stroke-linecap="round" stroke-linejoin="round"/>
</svg>
